<?xml version="1.0" encoding="utf-8"?>
<!-- Generator: Adobe Illustrator 22.1.0, SVG Export Plug-In . SVG Version: 6.00 Build 0)  -->
<svg version="1.1" id="圖層_1" xmlns="http://www.w3.org/2000/svg" xmlns:xlink="http://www.w3.org/1999/xlink" x="0px" y="0px"
	 viewBox="0 0 137.8 33" style="enable-background:new 0 0 137.8 33;" xml:space="preserve">
<style type="text/css">
	.st0{fill:#00C8FF;}
</style>
<g>
	<g>
		<path class="st0" d="M3.8,8L0,28.6c-0.1,0.2,0.2,0.5,0.4,0.5h5.5c0.2,0,0.4-0.2,0.4-0.3l3.8-20.5c0-0.3-0.2-0.6-0.4-0.6H4.2
			C4,7.7,3.8,7.8,3.8,8z"/>
		<path class="st0" d="M11.1,0H5.5C5.3,0,5.2,0.2,5.2,0.3l-1,5.3c0,0.2,0.2,0.5,0.4,0.5h5.5c0.2,0,0.4-0.2,0.4-0.3l1-5.3
			C11.5,0.2,11.3,0,11.1,0z"/>
		<path class="st0" d="M30.8,8.8c-1.1-1.1-2.6-1.5-4.4-1.6c-2.1-0.1-5,1.1-6.4,3l0.4-2.1c0.1-0.2-0.2-0.5-0.4-0.5h-5.5
			c-0.2,0-0.4,0.2-0.4,0.3l-3.8,20.5c-0.1,0.2,0.2,0.5,0.4,0.5h5.5c0.2,0,0.4-0.2,0.4-0.3l1.5-8.5c0.4-2.3,1.9-5,3.5-6.3
			c0.9-0.7,1.5-1,2.2-1.1c0.8-0.1,2.3,0.4,2.1,2.2c-0.1,0.5-2.4,13.4-2.4,13.4c-0.1,0.2,0.2,0.5,0.4,0.5h5.6c0.2,0,0.4-0.2,0.4-0.3
			L32,17.1c0.4-2,0.5-3.4,0.5-4.2C32.5,11.3,31.9,9.8,30.8,8.8z"/>
		<path class="st0" d="M43,12.7c0.3-0.2,1-0.5,2.4-0.4c0.9,0.1,1.9,0.4,2.6,0.9c0.6,0.5,0.7,1,0.9,1.3c0.1,0.2,0.3,0.3,0.4,0.3
			l5.3-0.9c0.2-0.1,0.4-0.3,0.3-0.5l-0.1-0.2c-0.5-1.9-1.5-3.5-2.9-4.5S48.3,7,45.6,7c-3.4,0-6,1-7.7,2.7C36.6,11,36,12.5,36,14.2
			c0.1,1.8,0.9,3,2.2,4.1c0.9,0.7,2.9,1.4,6.4,2.4c0.8,0.3,2.1,0.8,2.3,1.8c0.1,0.2,0,0.7-0.6,1.2s-1.7,0.6-2.7,0.5
			s-1.9-0.4-2.6-0.7c-1-0.6-1.4-1.5-1.7-2c-0.1-0.2-0.3-0.3-0.4-0.2l-5.5,0.9c-0.2,0.1-0.4,0.3-0.3,0.5l0.1,0.2
			c0.6,2.1,1.9,3.7,3.6,4.8s4.1,1.7,7.1,1.7s5.5-0.7,7.1-2.2c1.7-1.5,2.5-3.4,2.4-5.4c-0.1-1.6-0.9-3-2.3-4c-1-0.7-3.9-1.8-5.6-2.3
			c-1.2-0.4-2.1-0.8-2.3-1C42.6,14.1,42.2,13.3,43,12.7z"/>
		<path class="st0" d="M66,13.5h3.2c0.2,0,0.4-0.2,0.4-0.3l0.9-5.1c0.1-0.2-0.2-0.5-0.4-0.5H67l1.3-6.9c0.1-0.3-0.3-0.6-0.6-0.4
			l-6.1,3.4c-0.1,0.1-0.2,0.2-0.2,0.3l-0.7,3.7h-2.4c-0.2,0-0.4,0.2-0.4,0.3L57,13.1c-0.1,0.2,0.2,0.5,0.4,0.5h2.2l-1.3,6.8
			c-0.4,2.3-0.6,3.8-0.6,4.4c0.1,1.5,0.6,2.7,1.6,3.5s2.5,1.2,4.6,1.2c1.1,0,2.4-0.2,3-0.3c0.2,0,0.3-0.2,0.3-0.3l0.9-4.7
			c0.1-0.3-0.2-0.5-0.4-0.5c-0.7,0.1-1.5,0.1-1.9,0.1c-0.7-0.1-1.6-0.7-1.4-1.8C64.5,21.9,66,13.5,66,13.5z"/>
		<path class="st0" d="M91.4,9.7C89.6,8,87,7.1,83.8,7.1c-3.7,0-6.8,1.2-9,3.6c-2.3,2.3-3.5,5.5-3.5,9.5c0,1.7,0.4,3.3,1.2,4.8
			s2,2.7,3.6,3.5s3.5,1.2,5.5,1.2c3.8,0,6.9-1.3,9.1-3.8s3.4-5.5,3.4-8.9C94.1,13.8,93.2,11.5,91.4,9.7z M86.4,20.7
			c0,0.8-0.6,1.5-1.5,1.5h-4.8c-0.8,0-1.5-0.6-1.5-1.5v-4.8c0-0.8,0.6-1.5,1.5-1.5h4.8c0.8,0,1.5,0.6,1.5,1.5V20.7z"/>
	</g>
	<g>
		<path class="st0" d="M112.9,11.2v2h-5.7v15.6h-2.4V13.2h-5.7v-2H112.9z"/>
		<path class="st0" d="M122.9,28.8h-1.5l-0.5-1.6c-0.3,0.3-0.6,0.5-1,0.8c-0.3,0.2-0.6,0.4-1,0.6c-0.3,0.2-0.7,0.3-1.1,0.4
			s-0.8,0.1-1.3,0.1s-1-0.1-1.3-0.2c-0.4-0.2-0.8-0.3-1.1-0.6c-0.3-0.3-0.5-0.6-0.7-1s-0.3-0.9-0.3-1.5c0-0.5,0.2-1,0.4-1.4
			c0.3-0.5,0.7-0.9,1.3-1.2c0.6-0.4,1.4-0.6,2.3-0.9c1-0.2,2.2-0.3,3.6-0.3v-1c0-1-0.2-1.7-0.6-2.2s-1-0.7-1.8-0.7
			c-0.5,0-1,0.1-1.3,0.2c-0.4,0.2-0.7,0.3-1,0.5c-0.6,0.4-1.2,0.9-1.2,0.9l-1.1-1.4c0.7-0.6,1.4-1.2,2.2-1.5s1.7-0.5,2.7-0.5
			c0.7,0,1.3,0.1,1.9,0.3c0.5,0.2,1,0.5,1.4,1c0.4,0.4,0.6,0.9,0.9,1.5c0.2,0.6,0.3,1.2,0.3,1.9v7.9L122.9,28.8L122.9,28.8z
			 M117.3,27.5c0.4,0,0.7-0.1,1.1-0.1c0.3-0.1,0.6-0.2,0.9-0.3c0.3-0.2,0.5-0.3,0.8-0.5s0.5-0.4,0.7-0.7v-2.6c-1,0-1.9,0.1-2.6,0.2
			s-1.3,0.3-1.7,0.5c-0.4,0.2-0.7,0.4-1,0.7c-0.2,0.3-0.3,0.6-0.3,1c0,0.3,0.1,0.6,0.2,0.9c0.1,0.2,0.3,0.4,0.4,0.6
			c0.2,0.2,0.4,0.3,0.6,0.3C116.7,27.4,116.9,27.5,117.3,27.5z"/>
		<path class="st0" d="M126.8,33V16.3h2.1v1.9c0.5-0.6,1.1-1.2,1.8-1.5c0.7-0.4,1.5-0.6,2.3-0.6c0.7,0,1.4,0.2,1.9,0.4
			c0.6,0.3,1.1,0.7,1.5,1.2s0.7,1.2,1,2c0.2,0.8,0.3,1.7,0.3,2.7c0,0.9-0.1,1.8-0.4,2.6s-0.6,1.5-1.1,2.1s-1,1-1.7,1.4
			c-0.7,0.3-1.4,0.5-2.2,0.5c-0.7,0-1.4-0.1-2-0.4s-1-0.6-1.4-1.1V33H126.8z M132.4,17.9c-0.7,0-1.3,0.2-1.9,0.5
			c-0.5,0.3-1,0.8-1.5,1.4v6c0.4,0.5,0.9,0.9,1.3,1.1c0.5,0.2,1,0.3,1.6,0.3c1.2,0,2-0.4,2.7-1.2c0.6-0.9,1-2,1-3.5
			c0-0.8-0.1-1.5-0.2-2.1c-0.2-0.6-0.4-1.1-0.6-1.4c-0.3-0.4-0.6-0.6-1-0.8C133.3,18,132.9,17.9,132.4,17.9z"/>
	</g>
</g>
</svg>
