<?xml version="1.0" encoding="UTF-8"?>
<svg width="24px" height="24px" viewBox="0 0 24 24" version="1.1" xmlns="http://www.w3.org/2000/svg" xmlns:xlink="http://www.w3.org/1999/xlink">
    <!-- Generator: Sketch 46.2 (44496) - http://www.bohemiancoding.com/sketch -->
    <title>visibilityOffBlue</title>
    <desc>Created with Sketch.</desc>
    <defs></defs>
    <g id="Symbols" stroke="none" stroke-width="1" fill="none" fill-rule="evenodd" stroke-linecap="round" stroke-linejoin="round">
        <g id="visibilityOffBlue" stroke="#2FCBFF">
            <g id="visibility_off" transform="translate(3.000000, 4.000000)">
                <path d="M0.833364,7.999997 C1.6054812,4.196263 4.968404,1.33333 9,1.33333 C13.031594,1.33333 16.394524,4.196263 17.166634,7.999997 C16.394524,11.80373 13.031594,14.66666 9,14.66666 C4.968404,14.66666 1.6054812,11.80373 0.833364,7.999997 Z" id="Stroke-1" stroke-width="1.5"></path>
                <path d="M9,10.5 C10.380712,10.5 11.5,9.380712 11.5,8 C11.5,6.619288 10.380712,5.5 9,5.5 C7.619288,5.5 6.5,6.619288 6.5,8 C6.5,9.380712 7.619288,10.5 9,10.5 Z" id="Stroke-3" stroke-width="1.5"></path>
                <path d="M1.5,15.5 L16.5,0.5" id="Stroke-5" stroke-width="1.6"></path>
            </g>
        </g>
    </g>
</svg>